curl
version=1
nRows=144
nColumns=3
inDegrees=yes
endheader
time	r_shoulder_elev	r_elbow_flex
9.5600	39.072880	127.923431
9.5700	39.024943	128.000000
9.5800	38.985772	128.000000
9.5900	38.955971	128.000000
9.6000	38.936107	128.000000
9.6100	38.926709	128.000000
9.6200	38.928267	127.939779
9.6300	38.941224	127.709622
9.6400	38.965972	127.407550
9.6500	39.002850	127.031802
9.6600	39.052136	126.580769
9.6700	39.114041	126.053015
9.6800	39.188708	125.447298
9.6900	39.276202	124.762583
9.7000	39.376509	123.998065
9.7100	39.489526	123.153183
9.7200	39.615062	122.227633
9.7300	39.752830	121.221386
9.7400	39.902447	120.134697
9.7500	40.063428	118.968117
9.7600	40.235186	117.722501
9.7700	40.417034	116.399017
9.7800	40.608179	114.999149
9.7900	40.807728	113.524699
9.8000	41.014691	111.977788
9.8100	41.227981	110.360852
9.8200	41.446423	108.676637
9.8300	41.668755	106.928187
9.8400	41.893641	105.118838
9.8500	42.119676	103.252198
9.8600	42.345396	101.332132
9.8700	42.569290	99.362743
9.8800	42.789807	97.348349
9.8900	43.005376	95.293459
9.9000	43.214412	93.202752
9.9100	43.415331	91.081043
9.9200	43.606565	88.933262
9.9300	43.786578	86.764424
9.9400	43.953871	84.579601
9.9500	44.107003	82.383893
9.9600	44.244601	80.182400
9.9700	44.365368	77.980196
9.9800	44.468098	75.782297
9.9900	44.551682	73.593639
10.0000	44.615120	71.419050
10.0100	44.657523	69.263225
10.0200	44.678126	67.130704
10.0300	44.676290	65.025845
10.0400	44.651503	62.952802
10.0500	44.603391	60.915507
10.0600	44.531712	58.917643
10.0700	44.436363	56.962627
10.0800	44.317376	55.053589
10.0900	44.174920	53.193353
10.1000	44.009295	51.384420
10.1100	43.820933	49.628951
10.1200	43.610390	47.928753
10.1300	43.378343	46.285266
10.1400	43.125579	44.699555
10.1500	42.852994	43.172299
10.1600	42.561579	41.703792
10.1700	42.252413	40.293938
10.1800	41.926653	38.942257
10.1900	41.585520	37.647889
10.2000	41.230292	36.409610
10.2100	40.862289	35.225845
10.2200	40.482860	34.094689
10.2300	40.093375	33.013934
10.2400	39.695211	31.981099
10.2500	39.289739	30.993467
10.2600	38.878317	30.048117
10.2700	38.462276	29.141971
10.2800	38.042918	28.271837
10.2900	37.621500	27.434450
10.3000	37.199232	26.626523
10.3100	36.777274	25.844791
10.3200	36.356725	25.086055
10.3300	35.938624	24.347229
10.3400	35.523949	23.625381
10.3500	35.113614	22.917772
10.3600	34.708468	22.221892
10.3700	34.309299	21.535492
10.3800	33.916835	20.856610
10.3900	33.531746	20.183596
10.4000	33.154648	19.515124
10.4100	32.786104	18.850212
10.4200	32.426632	18.188222
10.4300	32.076706	17.528864
10.4400	31.736762	16.872196
10.4500	31.407198	16.218614
10.4600	31.088384	15.568842
10.4700	30.780658	14.923921
10.4800	30.484335	14.285187
10.4900	30.199704	13.654254
10.5000	29.927035	13.032992
10.5100	29.666578	12.423502
10.5200	29.418562	11.828090
10.5300	29.183199	11.249242
10.5400	28.960681	10.689601
10.5500	28.751182	10.151934
10.5600	28.554854	9.639116
10.5700	28.371829	9.154097
10.5800	28.202214	8.699887
10.5900	28.046094	8.279532
10.6000	27.903525	7.896092
10.6100	27.774538	7.552627
10.6200	27.659133	7.252176
10.6300	27.557279	6.997740
10.6400	27.468915	6.792271
10.6500	27.393946	6.638653
10.6600	27.332244	6.539689
10.6700	27.283652	6.498085
10.6800	27.247974	6.516442
10.6900	27.224989	6.597236
10.7000	27.214441	6.742807
10.7100	27.216049	6.955345
10.7200	27.229504	7.236876
10.7300	27.254474	7.589247
10.7400	27.290610	8.014112
10.7500	27.337547	8.512914
10.7600	27.394908	9.086872
10.7700	27.462313	9.736962
10.7800	27.539381	10.463903
10.7900	27.625737	11.268141
10.8000	27.721021	12.149830
10.8100	27.824887	13.108821
10.8200	27.937017	14.144645
10.8300	28.057124	15.256502
10.8400	28.184953	16.443253
10.8500	28.320295	17.703409
10.8600	28.462983	19.035128
10.8700	28.612898	20.436215
10.8800	28.769974	21.904123
10.8900	28.934193	23.435961
10.9000	29.105592	25.028502
10.9100	29.284252	26.678199
10.9200	29.470304	28.381204
10.9300	29.663915	30.133387
10.9400	29.865291	31.930364
10.9500	30.074662	33.767528
10.9600	30.292276	35.640077
10.9700	30.518389	37.543057
10.9800	30.753253	39.471392
10.9900	30.997106	41.419934
